<svg width="421" height="69" viewBox="0 0 421 69" fill="none" xmlns="http://www.w3.org/2000/svg">
<g clip-path="url(#clip0)">
<path d="M58.0796 0H12.416V11.54H58.0796V0Z" fill="black"/>
<path d="M58.0796 57.7H12.416V69.2399H58.0796V57.7Z" fill="black"/>
<path d="M12.4159 11.54H1V57.7H12.4159V11.54Z" fill="black"/>
<path d="M69.5053 11.54H58.0894V57.7H69.5053V11.54Z" fill="black"/>
<path d="M162.317 57.7H173.733V21.7H196.564V57.7H207.98V11.54H162.317V57.7Z" fill="black"/>
<path d="M320.171 21.7401H338.106V57.7001H349.522V21.7401H367.457V11.5701H320.171V21.7401Z" fill="black"/>
<path d="M223.007 46.16H216.122V57.7H219.752C228.547 57.7 233.592 52.6 233.592 43.71V21.7H253.565V57.69H264.981V11.53H223.007V46.16V46.16Z" fill="black"/>
<path d="M386.124 44H385.57V11.54H374.154V57.7H389.497L409.589 25.23H410.133V57.7H421.549V11.54H406.215L386.124 44Z" fill="black"/>
<path d="M290.226 11.54L270.065 57.7H281.758L285.597 48.7H309.527L313.365 57.7H325.058L304.897 11.54H290.226V11.54ZM289.949 38.53L297.181 21.59H297.952L305.184 38.53H289.949Z" fill="black"/>
<path d="M127.545 10.26C110.826 10.26 100.36 19.39 100.36 34.61C100.36 49.96 110.965 58.96 127.545 58.96C144.777 58.96 154.729 49.31 154.729 34.61C154.729 20.11 144.777 10.26 127.545 10.26ZM127.545 48.51C117.068 48.51 111.944 42.92 111.944 34.62C111.944 26.28 117.197 20.73 127.545 20.73C137.912 20.73 143.145 26.29 143.145 34.62C143.145 42.98 138.1 48.51 127.545 48.51Z" fill="black"/>
</g>
<defs>
<clipPath id="clip0">
<rect width="421" height="69" fill="white"/>
</clipPath>
</defs>
</svg>
